<svg version="1.1" id="Layer_1" xmlns="http://www.w3.org/2000/svg" xmlns:xlink="http://www.w3.org/1999/xlink" x="0px" y="0px"
	 width="100%" viewBox="0 0 256 256" enable-background="new 0 0 256 256" xml:space="preserve">
<path fill="#FF291A" opacity="1.000000" stroke="none" 
	d="
M257.000000,107.000000 
	C257.000000,121.354225 257.000000,135.708450 256.639343,150.271881 
	C254.655655,156.372498 253.278381,162.344971 251.366791,168.141235 
	C243.368896,192.392303 229.766632,212.830261 209.697006,228.837982 
	C194.027664,241.335968 176.719467,250.305557 156.896057,254.153473 
	C154.824570,254.555573 152.960373,256.025513 151.000000,257.000000 
	C136.645767,257.000000 122.291542,257.000000 107.727432,256.639099 
	C101.619797,254.651062 95.642899,253.264526 89.838081,251.354858 
	C65.557037,243.366943 45.258068,229.610764 29.070564,209.673401 
	C15.617612,193.104065 6.937051,174.462921 2.908050,153.561249 
	C2.788541,152.941269 1.658752,152.516037 1.000000,152.000000 
	C1.000000,136.979111 1.000000,121.958214 1.358616,106.728386 
	C2.134644,105.848480 2.704952,105.228165 2.946530,104.498940 
	C6.568787,93.564674 9.354482,82.270599 13.933263,71.756340 
	C19.951319,57.937080 29.572039,46.455910 40.443485,35.932289 
	C58.367664,18.581581 79.571823,7.885248 103.870415,2.929014 
	C104.677841,2.764321 105.294449,1.664126 106.000000,1.000002 
	C121.020897,1.000000 136.041794,1.000000 151.269836,1.358002 
	C151.981949,2.116944 152.439468,2.780125 152.998672,2.881279 
	C183.992981,8.487807 209.037521,23.969870 228.834641,48.296799 
	C242.488495,65.074829 251.465546,83.953697 255.089035,105.338951 
	C255.198013,105.982101 256.339752,106.450256 257.000000,107.000000 
M78.558464,176.914276 
	C93.280708,186.923096 108.031883,196.889893 122.698082,206.980194 
	C125.285477,208.760315 127.317917,209.348022 130.293716,207.450150 
	C155.956573,191.083435 181.765625,174.945572 207.380478,158.504852 
	C209.191757,157.342285 210.781540,154.335541 210.822891,152.155014 
	C211.116440,136.672714 210.893204,121.181404 211.049591,105.695137 
	C211.082275,102.457375 209.969757,100.545143 207.286819,98.822891 
	C182.369934,82.828102 157.505814,66.750641 132.695480,50.591076 
	C130.064804,48.877636 128.115768,48.966576 125.495293,50.639385 
	C100.539398,66.570358 75.461746,82.311157 50.571636,98.343437 
	C48.775963,99.500069 47.215145,102.495537 47.174633,104.666451 
	C46.885727,120.148903 47.110619,135.640213 46.947277,151.126343 
	C46.913044,154.372452 48.043163,156.308243 50.681553,158.046173 
	C59.850796,164.086044 68.886627,170.328430 78.558464,176.914276 
z"/>
<path fill="#000000" opacity="1.000000" stroke="none" 
	d="
M151.468658,257.000000 
	C152.960373,256.025513 154.824570,254.555573 156.896057,254.153473 
	C176.719467,250.305557 194.027664,241.335968 209.697006,228.837982 
	C229.766632,212.830261 243.368896,192.392303 251.366791,168.141235 
	C253.278381,162.344971 254.655655,156.372498 256.639343,150.740540 
	C257.000000,186.260269 257.000000,221.520554 257.000000,257.000000 
	C221.979416,257.000000 186.958359,257.000000 151.468658,257.000000 
z"/>
<path fill="#000000" opacity="1.000000" stroke="none" 
	d="
M1.000000,152.468658 
	C1.658752,152.516037 2.788541,152.941269 2.908050,153.561249 
	C6.937051,174.462921 15.617612,193.104065 29.070564,209.673401 
	C45.258068,229.610764 65.557037,243.366943 89.838081,251.354858 
	C95.642899,253.264526 101.619797,254.651062 107.258774,256.639099 
	C71.740067,257.000000 36.480141,257.000000 1.000000,257.000000 
	C1.000000,222.312744 1.000000,187.625031 1.000000,152.468658 
z"/>
<path fill="#000000" opacity="1.000000" stroke="none" 
	d="
M257.000000,106.531342 
	C256.339752,106.450256 255.198013,105.982101 255.089035,105.338951 
	C251.465546,83.953697 242.488495,65.074829 228.834641,48.296799 
	C209.037521,23.969870 183.992981,8.487807 152.998672,2.881279 
	C152.439468,2.780125 151.981949,2.116944 151.738495,1.358002 
	C186.927292,1.000000 221.854568,1.000000 257.000000,1.000000 
	C257.000000,36.020592 257.000000,71.041641 257.000000,106.531342 
z"/>
<path fill="#000000" opacity="1.000000" stroke="none" 
	d="
M105.531342,1.000002 
	C105.294449,1.664126 104.677841,2.764321 103.870415,2.929014 
	C79.571823,7.885248 58.367664,18.581581 40.443485,35.932289 
	C29.572039,46.455910 19.951319,57.937080 13.933263,71.756340 
	C9.354482,82.270599 6.568787,93.564674 2.946530,104.498940 
	C2.704952,105.228165 2.134644,105.848480 1.358616,106.259727 
	C1.000000,71.073059 1.000000,36.146111 1.000000,1.000000 
	C35.687252,1.000000 70.374969,1.000000 105.531342,1.000002 
z"/>
<path fill="#FEF6F5" opacity="1.000000" stroke="none" 
	d="
M78.265839,176.704041 
	C68.886627,170.328430 59.850796,164.086044 50.681553,158.046173 
	C48.043163,156.308243 46.913044,154.372452 46.947277,151.126343 
	C47.110619,135.640213 46.885727,120.148903 47.174633,104.666451 
	C47.215145,102.495537 48.775963,99.500069 50.571636,98.343437 
	C75.461746,82.311157 100.539398,66.570358 125.495293,50.639385 
	C128.115768,48.966576 130.064804,48.877636 132.695480,50.591076 
	C157.505814,66.750641 182.369934,82.828102 207.286819,98.822891 
	C209.969757,100.545143 211.082275,102.457375 211.049591,105.695137 
	C210.893204,121.181404 211.116440,136.672714 210.822891,152.155014 
	C210.781540,154.335541 209.191757,157.342285 207.380478,158.504852 
	C181.765625,174.945572 155.956573,191.083435 130.293716,207.450150 
	C127.317917,209.348022 125.285477,208.760315 122.698082,206.980194 
	C108.031883,196.889893 93.280708,186.923096 78.265839,176.704041 
M190.176071,162.710022 
	C194.169952,160.122299 198.163834,157.534561 202.522812,154.710251 
	C191.103165,147.306168 180.280670,140.188385 169.297272,133.328201 
	C168.230316,132.661789 165.879532,133.102264 164.617371,133.855057 
	C157.770813,137.938538 151.063736,142.257568 144.339371,146.543701 
	C139.589737,149.571136 133.086594,151.675247 130.672684,156.026031 
	C128.253494,160.386337 129.872360,167.022766 129.837875,172.662277 
	C129.782486,181.718048 129.823013,190.774399 129.823013,200.869232 
	C150.351471,187.874222 169.947617,175.469376 190.176071,162.710022 
M102.650658,117.168633 
	C109.520699,112.806015 116.431488,108.505173 123.223289,104.023972 
	C124.449005,103.215256 126.005524,101.676567 126.022575,100.455521 
	C126.219063,86.386490 126.147896,72.313728 126.147896,57.196514 
	C102.173607,72.387184 79.015976,87.060402 55.325031,102.071533 
	C63.049732,107.335365 70.738701,111.512619 77.108055,117.174400 
	C85.763901,124.868675 93.589188,126.044250 102.650658,117.168633 
M134.366394,58.729412 
	C131.159012,56.842758 132.062683,59.634331 132.056793,60.907288 
	C131.997635,73.726501 131.941910,86.547241 132.128494,99.364014 
	C132.149979,100.838905 133.284424,102.841202 134.523926,103.668907 
	C144.618729,110.409943 154.836533,116.968903 165.097580,123.455627 
	C166.125931,124.105728 168.080719,124.542351 168.945984,124.008659 
	C180.087250,117.136757 191.108582,110.070381 202.643982,102.746071 
	C179.712784,87.938316 157.384003,73.519569 134.366394,58.729412 
M122.943588,155.089035 
	C115.246208,149.839172 107.072914,145.154419 99.982857,139.183395 
	C92.625450,132.987259 86.678223,132.582092 79.024429,138.774017 
	C71.882332,144.551971 63.563412,148.875244 55.311485,154.125809 
	C78.436432,169.802490 100.888184,185.022827 123.562347,200.393921 
	C123.562347,184.885406 123.562347,170.255295 122.943588,155.089035 
M126.605141,150.303070 
	C138.319244,143.178146 150.033356,136.053238 162.277252,128.606079 
	C151.506058,121.652199 141.482117,115.117607 131.358246,108.741669 
	C130.337616,108.098900 128.340286,107.812683 127.425545,108.378448 
	C116.733177,114.991707 106.161476,121.800041 94.893410,128.980255 
	C105.626175,136.263779 115.761383,143.141769 126.605141,150.303070 
M191.717834,140.787338 
	C195.976776,143.503143 200.235718,146.218948 204.703278,149.067795 
	C204.703278,135.320328 204.703278,122.201233 204.703278,108.373291 
	C193.806229,115.269714 183.507126,121.787712 172.807922,128.558929 
	C179.169266,132.658768 185.148880,136.512573 191.717834,140.787338 
M57.900513,145.526505 
	C66.541168,140.061020 75.181831,134.595551 84.292030,128.833084 
	C73.602287,121.583649 63.560543,114.773666 53.135155,107.703514 
	C53.135155,121.590057 53.135155,134.628555 53.135155,148.234421 
	C54.780621,147.315277 56.019577,146.623199 57.900513,145.526505 
z"/>
<path fill="#FF2B1C" opacity="1.000000" stroke="none" 
	d="
M189.859924,162.887283 
	C169.947617,175.469376 150.351471,187.874222 129.823013,200.869232 
	C129.823013,190.774399 129.782486,181.718048 129.837875,172.662277 
	C129.872360,167.022766 128.253494,160.386337 130.672684,156.026031 
	C133.086594,151.675247 139.589737,149.571136 144.339371,146.543701 
	C151.063736,142.257568 157.770813,137.938538 164.617371,133.855057 
	C165.879532,133.102264 168.230316,132.661789 169.297272,133.328201 
	C180.280670,140.188385 191.103165,147.306168 202.522812,154.710251 
	C198.163834,157.534561 194.169952,160.122299 189.859924,162.887283 
z"/>
<path fill="#FF2B1C" opacity="1.000000" stroke="none" 
	d="
M102.355469,117.379929 
	C93.589188,126.044250 85.763901,124.868675 77.108055,117.174400 
	C70.738701,111.512619 63.049732,107.335365 55.325031,102.071533 
	C79.015976,87.060402 102.173607,72.387184 126.147896,57.196514 
	C126.147896,72.313728 126.219063,86.386490 126.022575,100.455521 
	C126.005524,101.676567 124.449005,103.215256 123.223289,104.023972 
	C116.431488,108.505173 109.520699,112.806015 102.355469,117.379929 
z"/>
<path fill="#FF2B1C" opacity="1.000000" stroke="none" 
	d="
M134.710815,58.915115 
	C157.384003,73.519569 179.712784,87.938316 202.643982,102.746071 
	C191.108582,110.070381 180.087250,117.136757 168.945984,124.008659 
	C168.080719,124.542351 166.125931,124.105728 165.097580,123.455627 
	C154.836533,116.968903 144.618729,110.409943 134.523926,103.668907 
	C133.284424,102.841202 132.149979,100.838905 132.128494,99.364014 
	C131.941910,86.547241 131.997635,73.726501 132.056793,60.907288 
	C132.062683,59.634331 131.159012,56.842758 134.710815,58.915115 
z"/>
<path fill="#FF2B1C" opacity="1.000000" stroke="none" 
	d="
M123.252968,155.357101 
	C123.562347,170.255295 123.562347,184.885406 123.562347,200.393921 
	C100.888184,185.022827 78.436432,169.802490 55.311485,154.125809 
	C63.563412,148.875244 71.882332,144.551971 79.024429,138.774017 
	C86.678223,132.582092 92.625450,132.987259 99.982857,139.183395 
	C107.072914,145.154419 115.246208,149.839172 123.252968,155.357101 
z"/>
<path fill="#FF2C1D" opacity="1.000000" stroke="none" 
	d="
M126.250870,150.161423 
	C115.761383,143.141769 105.626175,136.263779 94.893410,128.980255 
	C106.161476,121.800041 116.733177,114.991707 127.425545,108.378448 
	C128.340286,107.812683 130.337616,108.098900 131.358246,108.741669 
	C141.482117,115.117607 151.506058,121.652199 162.277252,128.606079 
	C150.033356,136.053238 138.319244,143.178146 126.250870,150.161423 
z"/>
<path fill="#FF2C1D" opacity="1.000000" stroke="none" 
	d="
M191.423157,140.576874 
	C185.148880,136.512573 179.169266,132.658768 172.807922,128.558929 
	C183.507126,121.787712 193.806229,115.269714 204.703278,108.373291 
	C204.703278,122.201233 204.703278,135.320328 204.703278,149.067795 
	C200.235718,146.218948 195.976776,143.503143 191.423157,140.576874 
z"/>
<path fill="#FF2C1D" opacity="1.000000" stroke="none" 
	d="
M57.579521,145.728821 
	C56.019577,146.623199 54.780621,147.315277 53.135155,148.234421 
	C53.135155,134.628555 53.135155,121.590057 53.135155,107.703514 
	C63.560543,114.773666 73.602287,121.583649 84.292030,128.833084 
	C75.181831,134.595551 66.541168,140.061020 57.579521,145.728821 
z"/>
</svg>